<svg width="443.38503417968747px" height="122.02127685546874px" xmlns="http://www.w3.org/2000/svg" viewBox="28.307482910156267 13.98936157226563 443.38503417968747 122.02127685546874" style="background: rgba(24, 22, 27, 0);" preserveAspectRatio="xMidYMid"><defs><filter id="editing-vintage" x="-100%" y="-100%" width="300%" height="300%"><feConvolveMatrix in="SourceGraphic" result="extrude" order="6,6" divisor="1" kernelMatrix="1,0,0,0,0,0,0,1,0,0,0,0,0,0,1,0,0,0,0,0,0,1,0,0,0,0,0,0,1,0,0,0,0,0,0,1"> </feConvolveMatrix><feFlood flood-color="#1e3049" result="flood-extrude"></feFlood><feComposite operator="in" in="flood-extrude" in2="extrude" result="extrude-color"></feComposite><feOffset dx="3" dy="3" in="extrude-color" result="extrude-offset"></feOffset><feColorMatrix in="SourceGraphic" result="stroke" type="matrix" values="0 0 0 0 0 0 0 0 0 0 0 0 0 0 0 0 1 0 0 0 "></feColorMatrix><feColorMatrix in="SourceGraphic" result="fill" type="matrix" values="0 0 0 0 0 0 0 0 0 0 0 0 0 0 0 1 0 0 1 0 "></feColorMatrix><feConvolveMatrix in="stroke" result="inner-shadow" order="5,5" divisor="1" kernelMatrix="1 0 0 0 0 0 1 0 0 0 0 0 1 0 0 0 0 0 1 0 0 0 0 0 1 "></feConvolveMatrix><feOffset dx="1" dy="1" in="inner-shadow" result="offset"></feOffset><feComposite operator="in" in="offset" in2="SourceAlpha" result="comp"></feComposite><feFlood flood-color="#3f4b58" result="flood3"></feFlood><feComposite operator="in" in="flood3" in2="comp" result="comp2"></feComposite><feColorMatrix in="comp2" result="comp3" type="matrix" values="1 0 0 0 0 0 1 0 0 0 0 0 1 0 0 0 0 0 0.5 0 "></feColorMatrix><feFlood flood-color="#9e2721" result="flood1"></feFlood><feComposite operator="in" in="flood1" in2="fill" result="fill2"></feComposite><feFlood flood-color="#fff" result="flood2"></feFlood><feComposite operator="in" in="flood2" in2="stroke" result="stroke2"></feComposite><feMerge result="obj"><feMergeNode in="extrude-offset"></feMergeNode><feMergeNode in="fill2"></feMergeNode><feMergeNode in="comp3"></feMergeNode></feMerge><feConvolveMatrix in="SourceAlpha" result="shadow" order="6,6" divisor="1" kernelMatrix="1,0,0,0,0,0,0,1,0,0,0,0,0,0,1,0,0,0,0,0,0,1,0,0,0,0,0,0,1,0,0,0,0,0,0,1"></feConvolveMatrix><feOffset dx="9" dy="9" in="shadow" result="shadow-offset"></feOffset><feFlood flood-color="#deb896" result="flood-shadow"></feFlood><feComposite operator="in" in="flood-shadow" in2="shadow-offset" result="shadow-color"></feComposite><feMerge><feMergeNode in="shadow-color"></feMergeNode><feMergeNode in="obj"></feMergeNode></feMerge></filter></defs><g transform="translate(-6,-6)"><g filter="url(#editing-vintage)"><g transform="translate(95.34500607848167, 98.9921875)"><path d="M30.21-33.92L30.21-33.92L30.21-33.92Q25.02-33.92 21.25-35.65L21.25-35.65L19.20-25.28L31.55-25.28L31.55-25.28Q31.55-21.89 29.86-19.74L29.86-19.74L29.86-19.74Q28.16-17.60 25.09-17.60L25.09-17.60L25.09-17.60Q21.76-17.60 18.69-18.82L18.69-18.82L18.69-18.82Q18.05-19.07 17.98-19.14L17.98-19.14L14.34 0L0.38 0L8.51-42.24L37.06-42.24L37.06-42.24Q37.06-38.34 35.23-36.13L35.23-36.13L35.23-36.13Q33.41-33.92 30.21-33.92ZM55.62-2.69L55.62-2.69L55.62-2.69Q52.54 1.28 44.93 1.28L44.93 1.28L44.93 1.28Q40.96 1.28 38.08-1.12L38.08-1.12L38.08-1.12Q35.20-3.52 35.20-6.98L35.20-6.98L35.20-6.98Q35.20-8.90 35.39-9.86L35.39-9.86L39.68-32.64L52.67-33.92L48-9.22L48-9.22Q47.74-7.81 47.74-6.98L47.74-6.98L47.74-6.98Q47.74-3.26 49.98-3.26L49.98-3.26L49.98-3.26Q52.48-3.26 54.27-6.66L54.27-6.66L54.27-6.66Q54.85-7.74 55.10-9.15L55.10-9.15L59.65-32.64L72.26-33.92L67.52-8.96L67.52-8.96Q67.33-8 67.33-6.98L67.33-6.98L67.33-6.98Q67.33-5.95 67.90-4.83L67.90-4.83L67.90-4.83Q68.48-3.71 70.34-3.46L70.34-3.46L70.34-3.46Q69.95-1.92 68.61-0.90L68.61-0.90L68.61-0.90Q65.79 1.28 62.75 1.28L62.75 1.28L62.75 1.28Q59.71 1.28 57.92 0.19L57.92 0.19L57.92 0.19Q56.13-0.90 55.62-2.69ZM102.78 1.28L102.78 1.28L102.78 1.28Q95.04 1.28 95.04-4.74L95.04-4.74L95.04-4.74Q95.10-6.40 95.62-9.22L95.62-9.22L96.77-15.10L96.77-15.10Q98.50-23.42 98.50-25.28L98.50-25.28L98.50-25.28Q98.50-28.99 96.32-28.99L96.32-28.99L96.32-28.99Q92.67-28.99 90.75-19.46L90.75-19.46L86.98 0L74.11 1.28L80.77-32.70L91.26-33.92L90.24-27.65L90.24-27.65Q93.25-33.92 102.46-33.92L102.46-33.92L102.46-33.92Q106.94-33.92 108.83-32.03L108.83-32.03L108.83-32.03Q110.72-30.14 110.72-25.92L110.72-25.92L110.72-25.92Q110.72-21.95 108.67-12.67L108.67-12.67L108.67-12.67Q107.71-8.51 107.71-6.94L107.71-6.94L107.71-6.94Q107.71-5.38 108.58-4.48L108.58-4.48L108.58-4.48Q109.44-3.58 110.72-3.46L110.72-3.46L110.72-3.46Q110.08-1.28 107.87 0L107.87 0L107.87 0Q105.66 1.28 102.78 1.28ZM158.14-33.92L158.14-33.92L158.14-33.92Q152.96-33.92 149.18-35.65L149.18-35.65L147.14-25.28L159.49-25.28L159.49-25.28Q159.49-21.89 157.79-19.74L157.79-19.74L157.79-19.74Q156.10-17.60 153.02-17.60L153.02-17.60L153.02-17.60Q149.70-17.60 146.62-18.82L146.62-18.82L146.62-18.82Q145.98-19.07 145.92-19.14L145.92-19.14L142.27 0L128.32 0L136.45-42.24L164.99-42.24L164.99-42.24Q164.99-38.34 163.17-36.13L163.17-36.13L163.17-36.13Q161.34-33.92 158.14-33.92ZM178.75-3.52L178.75-3.52L178.75-3.52Q176.77 1.28 170.43 1.28L170.43 1.28L170.43 1.28Q167.17 1.28 165.12-0.96L165.12-0.96L165.12-0.96Q163.39-2.94 163.39-4.93L163.39-4.93L163.39-4.93Q163.39-10.11 165.76-20.22L165.76-20.22L168.13-32.64L181.12-33.92L177.22-13.70L177.22-13.70Q176.13-8.96 176.13-7.30L176.13-7.30L176.13-7.30Q176.13-3.65 178.75-3.52ZM169.28-41.54L169.28-41.54L169.28-41.54Q169.28-44.03 171.36-45.38L171.36-45.38L171.36-45.38Q173.44-46.72 176.45-46.72L176.45-46.72L176.45-46.72Q179.46-46.72 181.28-45.38L181.28-45.38L181.28-45.38Q183.10-44.03 183.10-41.54L183.10-41.54L183.10-41.54Q183.10-39.04 181.09-37.76L181.09-37.76L181.09-37.76Q179.07-36.48 176.06-36.48L176.06-36.48L176.06-36.48Q173.06-36.48 171.17-37.76L171.17-37.76L171.17-37.76Q169.28-39.04 169.28-41.54ZM210.11-10.82L210.11-10.82L210.11-10.82Q211.71-9.73 211.71-7.33L211.71-7.33L211.71-7.33Q211.71-4.93 210.50-3.39L210.50-3.39L210.50-3.39Q209.28-1.86 207.30-0.83L207.30-0.83L207.30-0.83Q203.20 1.28 198.78 1.28L198.78 1.28L198.78 1.28Q194.37 1.28 191.78 0.32L191.78 0.32L191.78 0.32Q189.18-0.64 187.46-2.43L187.46-2.43L187.46-2.43Q184.06-5.82 184.06-12.03L184.06-12.03L184.06-12.03Q184.06-21.70 189.31-27.58L189.31-27.58L189.31-27.58Q194.94-33.92 204.74-33.92L204.74-33.92L204.74-33.92Q210.82-33.92 213.82-31.36L213.82-31.36L213.82-31.36Q216.06-29.44 216.06-26.30L216.06-26.30L216.06-26.30Q216.06-15.04 196.61-15.04L196.61-15.04L196.61-15.04Q196.35-13.38 196.35-11.97L196.35-11.97L196.35-11.97Q196.35-9.02 197.66-7.90L197.66-7.90L197.66-7.90Q198.98-6.78 201.41-6.78L201.41-6.78L201.41-6.78Q203.84-6.78 206.43-7.90L206.43-7.90L206.43-7.90Q209.02-9.02 210.11-10.82ZM197.06-17.79L197.06-17.79L197.06-17.79Q201.60-17.79 204.22-20.61L204.22-20.61L204.22-20.61Q206.85-23.30 206.85-27.58L206.85-27.58L206.85-27.58Q206.85-29.06 206.30-29.86L206.30-29.86L206.30-29.86Q205.76-30.66 204.67-30.66L204.67-30.66L204.67-30.66Q203.58-30.66 202.66-30.24L202.66-30.24L202.66-30.24Q201.73-29.82 200.77-28.42L200.77-28.42L200.77-28.42Q198.40-25.22 197.06-17.79ZM237.38-22.46L237.38-22.46L237.38-22.46Q238.27-24.83 238.27-26.88L238.27-26.88L238.27-26.88Q238.27-30.66 235.20-30.66L235.20-30.66L235.20-30.66Q233.60-30.66 232.29-29.22L232.29-29.22L232.29-29.22Q230.98-27.78 230.98-25.98L230.98-25.98L230.98-25.98Q230.98-24.70 232.00-23.68L232.00-23.68L232.00-23.68Q233.47-22.27 237.25-19.97L237.25-19.97L237.25-19.97Q241.02-17.66 242.46-15.78L242.46-15.78L242.46-15.78Q243.90-13.89 243.90-11.30L243.90-11.30L243.90-11.30Q243.90-8.70 242.66-6.34L242.66-6.34L242.66-6.34Q241.41-3.97 239.17-2.30L239.17-2.30L239.17-2.30Q234.37 1.28 226.69 1.28L226.69 1.28L226.69 1.28Q222.53 1.28 219.33-0.90L219.33-0.90L219.33-0.90Q216.13-3.01 216.13-5.50L216.13-5.50L216.13-5.50Q216.13-8 217.95-9.47L217.95-9.47L217.95-9.47Q219.78-10.94 222.46-10.94L222.46-10.94L222.46-10.94Q225.15-10.94 226.82-9.92L226.82-9.92L226.82-9.92Q225.98-7.81 225.98-6.40L225.98-6.40L225.98-6.40Q225.98-2.18 229.57-2.18L229.57-2.18L229.57-2.18Q231.10-2.18 232.13-3.14L232.13-3.14L232.13-3.14Q233.15-4.10 233.15-5.76L233.15-5.76L233.15-5.76Q233.15-9.02 227.65-12.48L227.65-12.48L227.65-12.48Q223.17-15.42 222.14-16.58L222.14-16.58L222.14-16.58Q220.42-18.62 220.42-21.18L220.42-21.18L220.42-21.18Q220.42-23.74 221.63-26.18L221.63-26.18L221.63-26.18Q222.85-28.61 225.09-30.34L225.09-30.34L225.09-30.34Q229.76-33.92 237.89-33.92L237.89-33.92L237.89-33.92Q242.05-33.92 244.51-32.26L244.51-32.26L244.51-32.26Q246.98-30.59 246.98-27.78L246.98-27.78L246.98-27.78Q246.98-24.96 245.28-23.36L245.28-23.36L245.28-23.36Q243.58-21.76 240.51-21.76L240.51-21.76L240.51-21.76Q238.40-21.76 237.38-22.46ZM250.37-6.40L250.37-6.40L250.37-6.40Q250.37-8.13 251.26-12.48L251.26-12.48L254.66-29.76L250.88-29.76L251.14-31.68L251.14-31.68Q258.82-33.98 266.24-39.62L266.24-39.62L269.31-39.62L267.78-32.64L272.77-32.64L272.19-29.76L267.26-29.76L264-12.48L264-12.48Q263.17-8.51 263.17-7.17L263.17-7.17L263.17-7.17Q263.17-4.10 265.86-3.46L265.86-3.46L265.86-3.46Q265.22-1.28 262.91 0L262.91 0L262.91 0Q260.61 1.28 257.34 1.28L257.34 1.28L257.34 1.28Q254.08 1.28 252.22-0.77L252.22-0.77L252.22-0.77Q250.37-2.82 250.37-6.40ZM274.98-1.92L274.98-1.92L274.98-1.92Q273.47-3.58 272.80-6.21L272.80-6.21L272.80-6.21Q272.13-8.83 272.13-13.12L272.13-13.12L272.13-13.12Q272.13-17.41 273.60-21.31L273.60-21.31L273.60-21.31Q275.07-25.22 277.76-28.03L277.76-28.03L277.76-28.03Q283.26-33.92 292.35-33.92L292.35-33.92L292.35-33.92Q295.62-33.92 297.98-32.83L297.98-32.83L308.93-33.92L304.19-8.96L304.19-8.96Q304.00-8.19 304.00-6.78L304.00-6.78L304.00-6.78Q304.00-5.38 304.86-4.48L304.86-4.48L304.86-4.48Q305.73-3.58 307.01-3.46L307.01-3.46L307.01-3.46Q306.37-1.28 304.03 0L304.03 0L304.03 0Q301.70 1.28 299.07 1.28L299.07 1.28L299.07 1.28Q296.45 1.28 294.69 0.29L294.69 0.29L294.69 0.29Q292.93-0.70 292.42-2.37L292.42-2.37L292.42-2.37Q291.39-0.77 289.22 0.26L289.22 0.26L289.22 0.26Q287.04 1.28 284.13 1.28L284.13 1.28L284.13 1.28Q281.22 1.28 278.85 0.51L278.85 0.51L278.85 0.51Q276.48-0.26 274.98-1.92ZM288.48-27.90L288.48-27.90L288.48-27.90Q287.74-26.75 287.10-24.80L287.10-24.80L287.10-24.80Q286.46-22.85 285.41-17.63L285.41-17.63L285.41-17.63Q284.35-12.42 284.35-8.70L284.35-8.70L284.35-8.70Q284.35-4.99 284.93-3.90L284.93-3.90L284.93-3.90Q285.50-2.82 286.53-2.82L286.53-2.82L286.53-2.82Q288.58-2.82 290.08-4.77L290.08-4.77L290.08-4.77Q291.58-6.72 292.16-10.18L292.16-10.18L295.55-28.93L295.55-28.93Q294.21-30.08 292.64-30.08L292.64-30.08L292.64-30.08Q291.07-30.08 290.14-29.57L290.14-29.57L290.14-29.57Q289.22-29.06 288.48-27.90Z" fill="#f00" stroke="#0f0" stroke-width="1.8"></path></g></g><g><g transform="translate(95.34500607848167, 99)"><path d="M30.21-33.92L30.21-33.92L30.21-33.92Q25.02-33.92 21.25-35.65L21.25-35.65L19.20-25.28L31.55-25.28L31.55-25.28Q31.55-21.89 29.86-19.74L29.86-19.74L29.86-19.74Q28.16-17.60 25.09-17.60L25.09-17.60L25.09-17.60Q21.76-17.60 18.69-18.82L18.69-18.82L18.69-18.82Q18.05-19.07 17.98-19.14L17.98-19.14L14.34 0L0.38 0L8.51-42.24L37.06-42.24L37.06-42.24Q37.06-38.34 35.23-36.13L35.23-36.13L35.23-36.13Q33.41-33.92 30.21-33.92ZM55.62-2.69L55.62-2.69L55.62-2.69Q52.54 1.28 44.93 1.28L44.93 1.28L44.93 1.28Q40.96 1.28 38.08-1.12L38.08-1.12L38.08-1.12Q35.20-3.52 35.20-6.98L35.20-6.98L35.20-6.98Q35.20-8.90 35.39-9.86L35.39-9.86L39.68-32.64L52.67-33.92L48-9.22L48-9.22Q47.74-7.81 47.74-6.98L47.74-6.98L47.74-6.98Q47.74-3.26 49.98-3.26L49.98-3.26L49.98-3.26Q52.48-3.26 54.27-6.66L54.27-6.66L54.27-6.66Q54.85-7.74 55.10-9.15L55.10-9.15L59.65-32.64L72.26-33.92L67.52-8.96L67.52-8.96Q67.33-8 67.33-6.98L67.33-6.98L67.33-6.98Q67.33-5.95 67.90-4.83L67.90-4.83L67.90-4.83Q68.48-3.71 70.34-3.46L70.34-3.46L70.34-3.46Q69.95-1.92 68.61-0.90L68.61-0.90L68.61-0.90Q65.79 1.28 62.75 1.28L62.75 1.28L62.75 1.28Q59.71 1.28 57.92 0.19L57.92 0.19L57.92 0.19Q56.13-0.90 55.62-2.69ZM102.78 1.28L102.78 1.28L102.78 1.28Q95.04 1.28 95.04-4.74L95.04-4.74L95.04-4.74Q95.10-6.40 95.62-9.22L95.62-9.22L96.77-15.10L96.77-15.10Q98.50-23.42 98.50-25.28L98.50-25.28L98.50-25.28Q98.50-28.99 96.32-28.99L96.32-28.99L96.32-28.99Q92.67-28.99 90.75-19.46L90.75-19.46L86.98 0L74.11 1.28L80.77-32.70L91.26-33.92L90.24-27.65L90.24-27.65Q93.25-33.92 102.46-33.92L102.46-33.92L102.46-33.92Q106.94-33.92 108.83-32.03L108.83-32.03L108.83-32.03Q110.72-30.14 110.72-25.92L110.72-25.92L110.72-25.92Q110.72-21.95 108.67-12.67L108.67-12.67L108.67-12.67Q107.71-8.51 107.71-6.94L107.71-6.94L107.71-6.94Q107.71-5.38 108.58-4.48L108.58-4.48L108.58-4.48Q109.44-3.58 110.72-3.46L110.72-3.46L110.72-3.46Q110.08-1.28 107.87 0L107.87 0L107.87 0Q105.66 1.28 102.78 1.28ZM158.14-33.92L158.14-33.92L158.14-33.92Q152.96-33.92 149.18-35.65L149.18-35.65L147.14-25.28L159.49-25.28L159.49-25.28Q159.49-21.89 157.79-19.74L157.79-19.74L157.79-19.74Q156.10-17.60 153.02-17.60L153.02-17.60L153.02-17.60Q149.70-17.60 146.62-18.82L146.62-18.82L146.62-18.82Q145.98-19.07 145.92-19.14L145.92-19.14L142.27 0L128.32 0L136.45-42.24L164.99-42.24L164.99-42.24Q164.99-38.34 163.17-36.13L163.17-36.13L163.17-36.13Q161.34-33.92 158.14-33.92ZM178.75-3.52L178.75-3.52L178.75-3.52Q176.77 1.28 170.43 1.28L170.43 1.28L170.43 1.28Q167.17 1.28 165.12-0.96L165.12-0.96L165.12-0.96Q163.39-2.94 163.39-4.93L163.39-4.93L163.39-4.93Q163.39-10.11 165.76-20.22L165.76-20.22L168.13-32.64L181.12-33.92L177.22-13.70L177.22-13.70Q176.13-8.96 176.13-7.30L176.13-7.30L176.13-7.30Q176.13-3.65 178.75-3.52ZM169.28-41.54L169.28-41.54L169.28-41.54Q169.28-44.03 171.36-45.38L171.36-45.38L171.36-45.38Q173.44-46.72 176.45-46.72L176.45-46.72L176.45-46.72Q179.46-46.72 181.28-45.38L181.28-45.38L181.28-45.38Q183.10-44.03 183.10-41.54L183.10-41.54L183.10-41.54Q183.10-39.04 181.09-37.76L181.09-37.76L181.09-37.76Q179.07-36.48 176.06-36.48L176.06-36.48L176.06-36.48Q173.06-36.48 171.17-37.76L171.17-37.76L171.17-37.76Q169.28-39.04 169.28-41.54ZM210.11-10.82L210.11-10.82L210.11-10.82Q211.71-9.73 211.71-7.33L211.71-7.33L211.71-7.33Q211.71-4.93 210.50-3.39L210.50-3.39L210.50-3.39Q209.28-1.86 207.30-0.83L207.30-0.83L207.30-0.83Q203.20 1.28 198.78 1.28L198.78 1.28L198.78 1.28Q194.37 1.28 191.78 0.32L191.78 0.32L191.78 0.32Q189.18-0.64 187.46-2.43L187.46-2.43L187.46-2.43Q184.06-5.82 184.06-12.03L184.06-12.03L184.06-12.03Q184.06-21.70 189.31-27.58L189.31-27.58L189.31-27.58Q194.94-33.92 204.74-33.92L204.74-33.92L204.74-33.92Q210.82-33.92 213.82-31.36L213.82-31.36L213.82-31.36Q216.06-29.44 216.06-26.30L216.06-26.30L216.06-26.30Q216.06-15.04 196.61-15.04L196.61-15.04L196.61-15.04Q196.35-13.38 196.35-11.97L196.35-11.97L196.35-11.97Q196.35-9.02 197.66-7.90L197.66-7.90L197.66-7.90Q198.98-6.78 201.41-6.78L201.41-6.78L201.41-6.78Q203.84-6.78 206.43-7.90L206.43-7.90L206.43-7.90Q209.02-9.02 210.11-10.82ZM197.06-17.79L197.06-17.79L197.06-17.79Q201.60-17.79 204.22-20.61L204.22-20.61L204.22-20.61Q206.85-23.30 206.85-27.58L206.85-27.58L206.85-27.58Q206.85-29.06 206.30-29.86L206.30-29.86L206.30-29.86Q205.76-30.66 204.67-30.66L204.67-30.66L204.67-30.66Q203.58-30.66 202.66-30.24L202.66-30.24L202.66-30.24Q201.73-29.82 200.77-28.42L200.77-28.42L200.77-28.42Q198.40-25.22 197.06-17.79ZM237.38-22.46L237.38-22.46L237.38-22.46Q238.27-24.83 238.27-26.88L238.27-26.88L238.27-26.88Q238.27-30.66 235.20-30.66L235.20-30.66L235.20-30.66Q233.60-30.66 232.29-29.22L232.29-29.22L232.29-29.22Q230.98-27.78 230.98-25.98L230.98-25.98L230.98-25.98Q230.98-24.70 232.00-23.68L232.00-23.68L232.00-23.68Q233.47-22.27 237.25-19.97L237.25-19.97L237.25-19.97Q241.02-17.66 242.46-15.78L242.46-15.78L242.46-15.78Q243.90-13.89 243.90-11.30L243.90-11.30L243.90-11.30Q243.90-8.70 242.66-6.34L242.66-6.34L242.66-6.34Q241.41-3.97 239.17-2.30L239.17-2.30L239.17-2.30Q234.37 1.28 226.69 1.28L226.69 1.28L226.69 1.28Q222.53 1.28 219.33-0.90L219.33-0.90L219.33-0.90Q216.13-3.01 216.13-5.50L216.13-5.50L216.13-5.50Q216.13-8 217.95-9.47L217.95-9.47L217.95-9.47Q219.78-10.94 222.46-10.94L222.46-10.94L222.46-10.94Q225.15-10.94 226.82-9.92L226.82-9.92L226.82-9.92Q225.98-7.81 225.98-6.40L225.98-6.40L225.98-6.40Q225.98-2.18 229.57-2.18L229.57-2.18L229.57-2.18Q231.10-2.18 232.13-3.14L232.13-3.14L232.13-3.14Q233.15-4.10 233.15-5.76L233.15-5.76L233.15-5.76Q233.15-9.02 227.65-12.48L227.65-12.48L227.65-12.48Q223.17-15.42 222.14-16.58L222.14-16.58L222.14-16.58Q220.42-18.62 220.42-21.18L220.42-21.18L220.42-21.18Q220.42-23.74 221.63-26.18L221.63-26.18L221.63-26.18Q222.85-28.61 225.09-30.34L225.09-30.34L225.09-30.34Q229.76-33.92 237.89-33.92L237.89-33.92L237.89-33.92Q242.05-33.92 244.51-32.26L244.51-32.26L244.51-32.26Q246.98-30.59 246.98-27.78L246.98-27.78L246.98-27.78Q246.98-24.96 245.28-23.36L245.28-23.36L245.28-23.36Q243.58-21.76 240.51-21.76L240.51-21.76L240.51-21.76Q238.40-21.76 237.38-22.46ZM250.37-6.40L250.37-6.40L250.37-6.40Q250.37-8.13 251.26-12.48L251.26-12.48L254.66-29.76L250.88-29.76L251.14-31.68L251.14-31.68Q258.82-33.98 266.24-39.62L266.24-39.62L269.31-39.62L267.78-32.64L272.77-32.64L272.19-29.76L267.26-29.76L264-12.48L264-12.48Q263.17-8.51 263.17-7.17L263.17-7.17L263.17-7.17Q263.17-4.10 265.86-3.46L265.86-3.46L265.86-3.46Q265.22-1.28 262.91 0L262.91 0L262.91 0Q260.61 1.28 257.34 1.28L257.34 1.28L257.34 1.28Q254.08 1.28 252.22-0.77L252.22-0.77L252.22-0.77Q250.37-2.82 250.37-6.40ZM274.98-1.92L274.98-1.92L274.98-1.92Q273.47-3.58 272.80-6.21L272.80-6.21L272.80-6.21Q272.13-8.83 272.13-13.12L272.13-13.12L272.13-13.12Q272.13-17.41 273.60-21.31L273.60-21.31L273.60-21.31Q275.07-25.22 277.76-28.03L277.76-28.03L277.76-28.03Q283.26-33.92 292.35-33.92L292.35-33.92L292.35-33.92Q295.62-33.92 297.98-32.83L297.98-32.83L308.93-33.92L304.19-8.96L304.19-8.96Q304.00-8.19 304.00-6.78L304.00-6.78L304.00-6.78Q304.00-5.38 304.86-4.48L304.86-4.48L304.86-4.48Q305.73-3.58 307.01-3.46L307.01-3.46L307.01-3.46Q306.37-1.28 304.03 0L304.03 0L304.03 0Q301.70 1.28 299.07 1.28L299.07 1.28L299.07 1.28Q296.45 1.28 294.69 0.29L294.69 0.29L294.69 0.29Q292.93-0.70 292.42-2.37L292.42-2.37L292.42-2.37Q291.39-0.77 289.22 0.26L289.22 0.26L289.22 0.26Q287.04 1.28 284.13 1.28L284.13 1.28L284.13 1.28Q281.22 1.28 278.85 0.51L278.85 0.51L278.85 0.51Q276.48-0.26 274.98-1.92ZM288.48-27.90L288.48-27.90L288.48-27.90Q287.74-26.75 287.10-24.80L287.10-24.80L287.10-24.80Q286.46-22.85 285.41-17.63L285.41-17.63L285.41-17.63Q284.35-12.42 284.35-8.70L284.35-8.70L284.35-8.70Q284.35-4.99 284.93-3.90L284.93-3.90L284.93-3.90Q285.50-2.82 286.53-2.82L286.53-2.82L286.53-2.82Q288.58-2.82 290.08-4.77L290.08-4.77L290.08-4.77Q291.58-6.72 292.16-10.18L292.16-10.18L295.55-28.93L295.55-28.93Q294.21-30.08 292.64-30.08L292.64-30.08L292.64-30.08Q291.07-30.08 290.14-29.57L290.14-29.57L290.14-29.57Q289.22-29.06 288.48-27.90Z" fill="none" stroke="#c4ebd7" stroke-width="2.1"></path></g></g></g><style>text {
  font-size: 64px;
  font-family: Arial Black;
  dominant-baseline: central;
  text-anchor: middle;
}</style></svg>